# xmcd
#
# Track frame offsets:
#	150
#	16610
#	35127
#	54932
#	73252
#	93585
#	111870
#	130932
#	151075
#	166287
#	184352
#
# Disc length: 2711 seconds
#
# Revision: 1
# Processed by: cddbd v1.4PL0 Copyright (c) Steve Scherf et al.
# Submitted via: MusicWizard 6.0.1
#
DISCID=8f0a950b
DTITLE=Big Head Todd And The Monsters - Riviera
DYEAR=2002
DGENRE=Blues
TTITLE0=Julianna
TTITLE1=Freedom Fighter
TTITLE2=Hysteria
TTITLE3=Again And Again
TTITLE4=Runaway Train
TTITLE5=Wishing Well
TTITLE6=Jet
TTITLE7=Secret Mission
TTITLE8=Gary Indiana Blues
TTITLE9=Riviera
TTITLE10=Universal Mom
EXTD=Big Records 9 48266-2
EXTT0=
EXTT1=
EXTT2=
EXTT3=
EXTT4=
EXTT5=
EXTT6=
EXTT7=
EXTT8=
EXTT9=
EXTT10=
PLAYORDER=
